<mxfile host="app.diagrams.net" modified="2023-10-03T13:34:39.009Z" agent="Mozilla/5.0 (Macintosh; Intel Mac OS X 10_15_7) AppleWebKit/537.36 (KHTML, like Gecko) Chrome/116.0.0.0 Safari/537.36" etag="HrhgMFuoBemMpV506u-i" version="21.7.4" type="device">
  <diagram id="C5RBs43oDa-KdzZeNtuy" name="Page-1">
    <mxGraphModel dx="954" dy="642" grid="1" gridSize="10" guides="1" tooltips="1" connect="1" arrows="1" fold="1" page="1" pageScale="1" pageWidth="827" pageHeight="1169" math="0" shadow="0">
      <root>
        <mxCell id="WIyWlLk6GJQsqaUBKTNV-0" />
        <mxCell id="WIyWlLk6GJQsqaUBKTNV-1" parent="WIyWlLk6GJQsqaUBKTNV-0" />
        <mxCell id="zhCaQvxNTRQoibHT7pb4-3" style="edgeStyle=orthogonalEdgeStyle;rounded=0;orthogonalLoop=1;jettySize=auto;html=1;entryX=0.5;entryY=0;entryDx=0;entryDy=0;" edge="1" parent="WIyWlLk6GJQsqaUBKTNV-1" source="zhCaQvxNTRQoibHT7pb4-0" target="zhCaQvxNTRQoibHT7pb4-2">
          <mxGeometry relative="1" as="geometry" />
        </mxCell>
        <mxCell id="zhCaQvxNTRQoibHT7pb4-0" value="BEGIN" style="ellipse;whiteSpace=wrap;html=1;" vertex="1" parent="WIyWlLk6GJQsqaUBKTNV-1">
          <mxGeometry x="320" y="70" width="120" height="40" as="geometry" />
        </mxCell>
        <mxCell id="zhCaQvxNTRQoibHT7pb4-1" value="END" style="ellipse;whiteSpace=wrap;html=1;" vertex="1" parent="WIyWlLk6GJQsqaUBKTNV-1">
          <mxGeometry x="320" y="630" width="120" height="40" as="geometry" />
        </mxCell>
        <mxCell id="zhCaQvxNTRQoibHT7pb4-5" style="edgeStyle=orthogonalEdgeStyle;rounded=0;orthogonalLoop=1;jettySize=auto;html=1;entryX=0.5;entryY=0;entryDx=0;entryDy=0;" edge="1" parent="WIyWlLk6GJQsqaUBKTNV-1" source="zhCaQvxNTRQoibHT7pb4-2" target="zhCaQvxNTRQoibHT7pb4-4">
          <mxGeometry relative="1" as="geometry" />
        </mxCell>
        <mxCell id="zhCaQvxNTRQoibHT7pb4-2" value="Input Nama dan Nilai Mahasiswa" style="shape=parallelogram;perimeter=parallelogramPerimeter;whiteSpace=wrap;html=1;fixedSize=1;" vertex="1" parent="WIyWlLk6GJQsqaUBKTNV-1">
          <mxGeometry x="300" y="140" width="160" height="60" as="geometry" />
        </mxCell>
        <mxCell id="zhCaQvxNTRQoibHT7pb4-7" style="edgeStyle=orthogonalEdgeStyle;rounded=0;orthogonalLoop=1;jettySize=auto;html=1;entryX=0.5;entryY=0;entryDx=0;entryDy=0;" edge="1" parent="WIyWlLk6GJQsqaUBKTNV-1" source="zhCaQvxNTRQoibHT7pb4-4" target="zhCaQvxNTRQoibHT7pb4-6">
          <mxGeometry relative="1" as="geometry" />
        </mxCell>
        <mxCell id="zhCaQvxNTRQoibHT7pb4-4" value="Simpan Nama dan Nilai Mahasiswa" style="rounded=0;whiteSpace=wrap;html=1;" vertex="1" parent="WIyWlLk6GJQsqaUBKTNV-1">
          <mxGeometry x="300" y="230" width="160" height="60" as="geometry" />
        </mxCell>
        <mxCell id="zhCaQvxNTRQoibHT7pb4-9" style="edgeStyle=orthogonalEdgeStyle;rounded=0;orthogonalLoop=1;jettySize=auto;html=1;entryX=0.5;entryY=0;entryDx=0;entryDy=0;" edge="1" parent="WIyWlLk6GJQsqaUBKTNV-1" source="zhCaQvxNTRQoibHT7pb4-6" target="zhCaQvxNTRQoibHT7pb4-8">
          <mxGeometry relative="1" as="geometry" />
        </mxCell>
        <mxCell id="zhCaQvxNTRQoibHT7pb4-12" style="edgeStyle=orthogonalEdgeStyle;rounded=0;orthogonalLoop=1;jettySize=auto;html=1;" edge="1" parent="WIyWlLk6GJQsqaUBKTNV-1" source="zhCaQvxNTRQoibHT7pb4-6" target="zhCaQvxNTRQoibHT7pb4-11">
          <mxGeometry relative="1" as="geometry" />
        </mxCell>
        <mxCell id="zhCaQvxNTRQoibHT7pb4-6" value="Jika Nilai &amp;gt;=60" style="rhombus;whiteSpace=wrap;html=1;" vertex="1" parent="WIyWlLk6GJQsqaUBKTNV-1">
          <mxGeometry x="325" y="320" width="110" height="80" as="geometry" />
        </mxCell>
        <mxCell id="zhCaQvxNTRQoibHT7pb4-17" style="edgeStyle=orthogonalEdgeStyle;rounded=0;orthogonalLoop=1;jettySize=auto;html=1;entryX=0.5;entryY=0;entryDx=0;entryDy=0;" edge="1" parent="WIyWlLk6GJQsqaUBKTNV-1" source="zhCaQvxNTRQoibHT7pb4-8" target="zhCaQvxNTRQoibHT7pb4-14">
          <mxGeometry relative="1" as="geometry" />
        </mxCell>
        <mxCell id="zhCaQvxNTRQoibHT7pb4-8" value="Simpan Keterangan = LULUS" style="rounded=0;whiteSpace=wrap;html=1;" vertex="1" parent="WIyWlLk6GJQsqaUBKTNV-1">
          <mxGeometry x="300" y="440" width="160" height="60" as="geometry" />
        </mxCell>
        <mxCell id="zhCaQvxNTRQoibHT7pb4-10" value="BENAR" style="text;html=1;strokeColor=none;fillColor=none;align=center;verticalAlign=middle;whiteSpace=wrap;rounded=0;" vertex="1" parent="WIyWlLk6GJQsqaUBKTNV-1">
          <mxGeometry x="375" y="400" width="60" height="30" as="geometry" />
        </mxCell>
        <mxCell id="zhCaQvxNTRQoibHT7pb4-11" value="Simpan Keterangan = TIDAK LULUS" style="rounded=0;whiteSpace=wrap;html=1;" vertex="1" parent="WIyWlLk6GJQsqaUBKTNV-1">
          <mxGeometry x="500" y="440" width="120" height="60" as="geometry" />
        </mxCell>
        <mxCell id="zhCaQvxNTRQoibHT7pb4-13" value="SALAH" style="text;html=1;strokeColor=none;fillColor=none;align=center;verticalAlign=middle;whiteSpace=wrap;rounded=0;" vertex="1" parent="WIyWlLk6GJQsqaUBKTNV-1">
          <mxGeometry x="490" y="330" width="60" height="30" as="geometry" />
        </mxCell>
        <mxCell id="zhCaQvxNTRQoibHT7pb4-18" style="edgeStyle=orthogonalEdgeStyle;rounded=0;orthogonalLoop=1;jettySize=auto;html=1;entryX=0.5;entryY=0;entryDx=0;entryDy=0;" edge="1" parent="WIyWlLk6GJQsqaUBKTNV-1" source="zhCaQvxNTRQoibHT7pb4-14" target="zhCaQvxNTRQoibHT7pb4-1">
          <mxGeometry relative="1" as="geometry" />
        </mxCell>
        <mxCell id="zhCaQvxNTRQoibHT7pb4-14" value="Tampilkan Nama dan Keterangan" style="shape=parallelogram;perimeter=parallelogramPerimeter;whiteSpace=wrap;html=1;fixedSize=1;" vertex="1" parent="WIyWlLk6GJQsqaUBKTNV-1">
          <mxGeometry x="300" y="540" width="160" height="60" as="geometry" />
        </mxCell>
      </root>
    </mxGraphModel>
  </diagram>
</mxfile>
